<?xml version="1.0" standalone="no"?>
<!DOCTYPE svg PUBLIC "-//W3C//DTD SVG 20010904//EN"
 "http://www.w3.org/TR/2001/REC-SVG-20010904/DTD/svg10.dtd">
<svg version="1.0" xmlns="http://www.w3.org/2000/svg"
 width="320.000000pt" height="320.000000pt" viewBox="0 0 320.000000 320.000000"
 preserveAspectRatio="xMidYMid meet">
<metadata>
Created by potrace 1.11, written by Peter Selinger 2001-2013
</metadata>
<g transform="translate(0.000000,320.000000) scale(0.100000,-0.100000)"
fill="#000000" stroke="none">
<path d="M1647 2746 c-4 -10 -11 -14 -17 -11 -5 3 -10 1 -10 -5 0 -6 -5 -8
-12 -4 -6 4 -35 8 -64 9 -40 2 -55 -2 -65 -16 -9 -14 -16 -15 -26 -8 -7 6 -21
8 -30 4 -10 -3 -20 -6 -22 -5 -2 1 -8 -4 -13 -12 -8 -10 -9 -9 -4 4 3 10 1 20
-4 23 -4 3 -10 0 -12 -6 -2 -7 -12 -7 -30 0 -21 8 -26 7 -22 -3 7 -17 -31 -27
-47 -12 -9 8 -10 8 -4 -3 6 -11 4 -13 -9 -8 -13 5 -19 1 -23 -13 -5 -19 -7
-19 -18 -4 -11 16 -12 16 -18 0 -4 -9 -15 -16 -26 -16 -11 0 -23 -5 -26 -11
-4 -6 -13 -8 -21 -5 -9 4 -18 -4 -24 -19 -11 -30 -20 -33 -13 -5 3 11 0 20 -6
20 -6 0 -11 -7 -11 -16 0 -8 -4 -13 -9 -9 -5 3 -15 -1 -23 -8 -7 -8 -18 -12
-24 -10 -7 2 -19 -3 -28 -12 -9 -9 -16 -13 -16 -9 0 4 -12 -5 -27 -20 -15 -15
-29 -22 -33 -17 -3 6 -18 0 -34 -14 -16 -13 -38 -28 -50 -31 -20 -7 -19 -8 9
-20 27 -12 28 -13 7 -14 -70 -1 -183 -108 -165 -156 4 -10 2 -15 -4 -11 -16
10 -55 -23 -50 -43 3 -14 1 -17 -11 -13 -12 5 -14 1 -10 -15 4 -12 1 -25 -4
-29 -7 -4 -8 -1 -3 7 6 9 4 11 -4 6 -7 -5 -10 -14 -7 -22 3 -8 2 -14 -2 -14
-15 0 -39 -57 -31 -73 7 -11 4 -17 -9 -21 -19 -6 -45 -90 -43 -138 1 -16 -6
-31 -16 -37 -14 -8 -15 -11 -3 -11 12 0 10 -4 -4 -15 -12 -9 -15 -15 -7 -15
11 0 11 -3 1 -15 -10 -12 -10 -15 1 -15 11 0 11 -2 0 -9 -9 -6 -15 -25 -15
-45 0 -19 -4 -32 -8 -30 -4 3 -8 -4 -8 -15 0 -12 5 -21 11 -21 5 0 7 5 3 12
-4 7 -3 8 4 4 12 -7 5 -36 -8 -36 -4 0 -6 -64 -5 -142 5 -178 5 -179 14 -174
4 3 5 -9 3 -26 -3 -21 -1 -29 7 -24 7 5 11 -3 11 -22 0 -45 20 -94 34 -83 28
23 88 51 97 45 19 -11 57 -11 53 0 -3 7 9 13 31 14 26 2 35 -1 35 -13 0 -8 -4
-15 -10 -15 -16 0 -12 -27 5 -33 8 -4 17 -1 21 5 4 7 3 8 -4 4 -7 -4 -12 -1
-12 8 0 23 50 33 65 12 7 -9 17 -16 24 -16 22 0 91 -25 91 -33 0 -5 -10 -6
-22 -2 -20 5 -21 5 -5 -5 14 -9 22 -9 33 0 11 10 14 8 14 -11 0 -19 2 -21 10
-9 9 13 14 7 11 -12 0 -5 4 -8 9 -8 6 0 10 9 10 20 0 13 5 18 15 14 11 -4 12
-11 6 -23 -8 -12 -2 -21 25 -37 27 -17 32 -23 19 -28 -11 -4 -14 -2 -9 6 4 7
-6 3 -22 -8 -16 -11 -36 -19 -44 -19 -8 1 -22 3 -30 3 -10 2 -7 7 9 18 18 13
25 14 31 4 4 -7 13 -9 19 -6 16 11 13 26 -4 20 -8 -4 -15 -1 -15 6 0 9 -3 10
-13 1 -8 -6 -16 -9 -19 -6 -3 3 -10 -1 -17 -8 -15 -19 -3 -47 20 -47 10 0 19
-4 19 -10 0 -5 5 -10 11 -10 5 0 8 4 4 9 -7 12 34 36 53 33 7 -2 19 4 28 13 8
8 11 15 6 15 -12 0 -24 28 -14 34 12 7 83 -29 75 -38 -5 -4 -1 -7 7 -5 21 4
138 -33 122 -38 -7 -3 -27 1 -43 8 -32 13 -48 3 -49 -28 0 -6 -4 -14 -9 -18
-6 -3 -8 8 -6 25 2 16 -1 33 -7 36 -7 5 -9 2 -5 -9 4 -11 2 -14 -9 -10 -16 6
-20 -12 -4 -22 14 -9 12 -37 -2 -33 -13 5 -53 -30 -45 -39 3 -2 16 3 29 11 23
15 38 13 38 -5 0 -5 -8 -5 -17 -2 -15 6 -16 5 -3 -9 17 -18 30 -6 30 26 0 12
5 16 15 12 9 -3 19 3 25 14 8 15 6 21 -7 30 -15 8 -12 9 12 4 47 -9 85 -25 85
-36 0 -6 8 -4 18 3 15 13 16 12 4 -3 -13 -16 -42 -15 -42 1 0 4 -7 8 -15 8
-19 0 -16 -57 5 -75 13 -11 11 -11 -7 -2 -32 15 -29 -4 3 -25 15 -9 23 -12 20
-6 -4 6 -3 11 3 11 13 0 23 -17 26 -44 1 -11 3 -25 4 -29 1 -11 21 2 21 14 0
6 -4 8 -9 4 -6 -3 -9 4 -8 15 2 25 27 36 27 11 0 -20 27 -24 49 -7 12 9 13 7
8 -8 -6 -14 -4 -17 8 -12 8 3 15 1 15 -4 0 -6 7 -10 15 -10 8 0 15 -4 15 -10
0 -5 -8 -7 -17 -3 -15 5 -16 3 -6 -7 10 -11 15 -11 29 1 16 12 17 12 11 -3 -7
-20 9 -35 16 -16 4 10 8 10 15 -1 5 -7 14 -11 20 -7 6 3 14 1 17 -5 4 -5 13
-8 21 -5 8 3 14 1 14 -4 0 -16 22 -11 36 8 12 15 13 15 14 0 0 -9 -6 -18 -12
-21 -7 -3 1 -10 17 -17 29 -12 30 -12 8 -21 -13 -4 -23 -11 -23 -14 0 -4 5 -3
10 0 5 3 15 3 21 -1 16 -9 -9 -24 -43 -24 -15 0 -30 -5 -34 -12 -5 -8 -2 -9 9
-5 10 3 17 2 17 -3 0 -6 10 -6 26 0 16 7 32 7 44 0 24 -13 33 -13 24 1 -4 8 1
9 17 4 23 -7 23 -7 4 8 -11 9 -21 11 -23 6 -2 -5 -10 -9 -18 -9 -10 0 -13 9
-9 35 2 19 0 37 -5 40 -29 18 10 78 52 83 22 3 27 0 22 -13 -4 -10 -13 -13
-26 -9 -15 4 -18 3 -13 -7 6 -9 4 -11 -8 -6 -16 6 -27 -10 -20 -30 7 -20 23
-15 17 5 -4 11 1 8 15 -8 11 -14 21 -20 21 -15 0 6 5 2 11 -7 5 -10 15 -18 20
-18 6 0 7 5 4 11 -4 6 15 -6 43 -25 42 -30 51 -34 56 -20 9 23 8 27 -8 21 -10
-4 -13 -1 -10 7 3 8 -5 23 -17 35 -25 23 -39 27 -39 11 0 -5 -4 -10 -10 -10
-5 0 -7 7 -4 15 4 8 2 15 -4 15 -5 0 -9 11 -8 24 1 22 26 27 26 5 0 -5 -6 -9
-12 -10 -7 0 -2 -4 10 -10 13 -5 28 -7 33 -3 5 3 9 0 9 -5 0 -6 7 -11 15 -11
9 0 12 6 9 15 -4 10 0 15 10 15 12 0 15 -6 10 -24 -3 -14 -2 -32 3 -41 6 -10
-2 -58 -24 -143 -18 -70 -33 -134 -33 -142 0 -12 10 -14 44 -12 43 4 44 5 64
55 10 29 31 91 46 140 15 48 31 87 36 87 14 0 21 -18 10 -25 -18 -11 -11 -42
11 -48 12 -3 18 -10 15 -16 -4 -5 -2 -12 4 -16 5 -3 10 -11 10 -17 0 -7 -6 -6
-15 2 -12 10 -15 10 -15 -1 0 -8 9 -20 20 -27 11 -7 20 -19 20 -27 0 -14 3
-14 29 -1 30 16 45 40 42 66 -1 12 1 12 12 -2 12 -15 15 -15 37 4 23 18 23 18
3 8 -13 -6 -23 -7 -23 -2 0 12 30 20 48 15 6 -3 10 -8 8 -11 -2 -4 12 -7 31
-8 29 0 33 2 20 11 -20 15 0 42 30 40 16 -1 23 5 27 27 3 15 10 28 16 28 6 0
8 -6 4 -12 -6 -10 -5 -10 7 -1 12 10 20 10 36 -2 19 -13 20 -12 19 17 -1 20 5
33 14 35 13 4 13 3 1 -5 -12 -9 -12 -13 -2 -26 11 -13 16 -12 43 12 46 41 76
94 72 127 -4 38 5 77 17 69 5 -3 9 1 9 9 0 23 29 42 42 29 17 -17 33 -15 19 2
-9 10 -9 15 -1 18 7 2 -5 11 -24 21 -20 9 -36 12 -36 7 0 -6 -4 -10 -9 -10 -4
0 -4 19 1 43 5 23 9 55 8 70 0 16 4 26 9 22 6 -3 8 -12 5 -19 -4 -9 3 -14 20
-14 14 1 26 4 26 9 0 5 -4 9 -10 9 -5 0 -10 5 -10 11 0 6 9 8 21 4 17 -6 20
-4 15 12 -3 10 -1 25 5 33 8 12 9 10 4 -7 -4 -15 -2 -23 6 -23 7 0 21 -8 32
-18 11 -9 17 -11 13 -5 -4 7 -2 13 3 13 6 0 11 7 11 15 0 8 -4 15 -8 15 -5 0
-17 7 -28 15 -10 8 -14 15 -9 14 25 -3 46 2 40 11 -3 5 -13 6 -23 3 -13 -4
-13 -3 3 10 16 13 17 17 6 31 -7 9 -21 16 -29 16 -13 0 -14 2 -3 13 11 10 14
9 18 -1 10 -25 21 -1 13 28 -10 33 -4 39 15 13 9 -13 14 -13 20 -3 5 9 4 11
-3 6 -8 -5 -12 1 -12 18 0 14 -4 28 -10 31 -5 3 -10 0 -10 -7 0 -10 -3 -9 -9
1 -7 11 -3 20 11 33 12 10 18 21 15 25 -4 3 -2 12 3 18 7 8 7 21 1 38 -8 21
-7 25 4 20 8 -3 12 -9 9 -14 -3 -5 2 -9 12 -9 15 0 15 2 0 25 -16 24 -16 25 9
25 33 0 32 16 -2 32 -16 7 -28 19 -28 26 0 7 -6 17 -14 21 -8 5 -11 16 -6 30
3 12 11 19 16 16 5 -4 14 -3 21 1 8 5 2 12 -17 21 l-30 14 38 -6 c41 -7 43 6
6 32 -10 8 -15 21 -12 32 3 12 0 19 -9 18 -30 -1 -48 4 -48 13 0 13 27 13 32
-1 4 -12 38 -1 38 12 0 5 -6 9 -14 9 -8 0 -17 6 -19 13 -4 9 -8 9 -15 -2 -6
-9 -9 2 -7 35 3 66 4 66 15 59 6 -4 7 2 1 18 -5 13 -7 43 -4 66 4 32 0 52 -17
86 -13 24 -27 42 -32 38 -6 -3 -5 -8 2 -13 8 -5 7 -9 -6 -14 -25 -9 -29 0 -14
30 10 18 11 30 3 42 -11 19 -25 20 -32 1 -2 -8 1 -9 10 -3 12 6 11 5 0 -10
-20 -24 -32 -2 -25 44 4 25 3 31 -4 21 -8 -11 -11 -7 -14 20 -4 36 -4 37 -31
-35 -6 -16 -13 -24 -15 -18 -6 19 -42 14 -43 -5 0 -11 -3 -13 -6 -5 -3 7 5 43
16 81 27 88 26 102 -3 130 l-24 23 -33 -81 c-32 -78 -33 -80 -63 -75 -17 3
-42 10 -56 14 -14 5 -42 12 -63 15 -21 3 -75 14 -120 24 -45 11 -109 25 -142
31 -33 7 -67 15 -75 18 -8 3 -22 6 -30 8 -8 1 -42 7 -75 14 -33 7 -72 14 -87
17 -16 3 -28 9 -28 13 0 4 -11 6 -25 5 -14 -2 -23 1 -19 6 3 5 11 9 19 9 7 0
33 8 57 19 43 18 45 18 163 -5 66 -14 129 -28 140 -33 11 -5 45 -12 75 -15 30
-3 66 -7 80 -10 14 -3 36 -8 50 -11 65 -14 78 -16 123 -24 68 -12 58 6 -13 21
-33 6 -57 14 -54 17 9 9 38 7 45 -3 4 -5 13 -6 20 -3 9 3 2 10 -19 19 -18 8
-29 18 -25 23 5 4 2 5 -5 1 -7 -4 -20 -2 -28 5 -13 10 -17 10 -25 -2 -7 -11
-9 -11 -9 4 0 9 5 17 10 17 6 0 10 7 10 15 0 20 -12 19 -44 -6 -19 -15 -24
-16 -20 -5 3 9 11 16 17 16 15 0 0 13 -21 18 -9 2 -31 4 -49 5 -17 0 -29 5
-26 11 4 5 -3 7 -15 4 -12 -4 -22 -3 -22 1 0 9 -15 12 -69 14 -22 1 -37 5 -35
8 3 6 -80 26 -138 33 -10 1 -20 5 -24 8 -12 12 43 22 114 21 43 -1 72 2 72 8
0 6 -8 9 -17 8 -10 -1 -30 1 -45 5 -25 7 -27 12 -23 39 3 17 8 34 11 39 3 4
-6 7 -20 6 -16 -2 -26 -9 -26 -18 -1 -11 -6 -9 -19 8 -22 25 -36 29 -27 7 7
-20 -24 -20 -50 0 -10 8 -23 15 -28 15 -6 0 -2 -6 9 -13 10 -8 14 -17 8 -20
-5 -4 -19 2 -31 13 -14 14 -23 16 -28 9 -4 -8 -11 -4 -19 11 -10 19 -13 20
-18 6z m-122 -36 c3 -5 1 -10 -4 -10 -6 0 -11 5 -11 10 0 6 2 10 4 10 3 0 8
-4 11 -10z m35 -5 c-7 -9 -15 -13 -19 -10 -3 3 1 10 9 15 21 14 24 12 10 -5z
m253 -146 c-8 -8 -13 -7 -18 2 -5 8 -4 10 3 5 7 -4 12 -2 12 5 0 7 3 9 7 6 4
-4 2 -12 -4 -18z m-52 -32 c-10 -9 -11 -8 -5 6 3 10 9 15 12 12 3 -3 0 -11 -7
-18z m-112 -217 c43 -12 414 -100 521 -124 41 -10 91 -21 111 -27 l37 -9 -18
-48 c-10 -26 -23 -60 -29 -76 -8 -20 -15 -25 -24 -19 -6 5 -39 17 -72 25 -121
33 -149 40 -167 43 -11 2 -29 7 -40 11 -11 3 -30 7 -41 9 -12 1 -51 12 -87 24
-36 11 -103 30 -150 41 -237 59 -279 67 -290 56 -7 -7 -10 -6 -10 2 0 15 174
102 203 102 11 0 36 -4 56 -10z m777 -225 c-3 -10 1 -15 12 -16 14 0 14 -2 -3
-9 -34 -15 -42 -11 -37 15 2 14 11 25 19 25 9 0 13 -6 9 -15z m204 8 c0 -5 -4
-14 -9 -21 -7 -11 -9 -11 -14 1 -3 8 -3 18 0 21 9 8 23 7 23 -1z m-1168 -22
c13 -5 35 -12 50 -15 15 -3 34 -13 42 -22 9 -8 16 -11 16 -5 0 6 7 8 15 5 8
-4 13 -9 11 -13 -3 -4 4 -12 15 -19 11 -7 19 -8 19 -2 0 5 -5 10 -12 10 -6 0
-9 3 -6 6 5 5 166 -34 178 -43 2 -2 -2 -8 -10 -13 -9 -6 -10 -10 -3 -10 6 0
20 -3 30 -6 15 -5 15 -4 3 5 -30 21 0 21 76 -1 92 -26 93 -26 74 -38 -9 -6
-10 -10 -3 -10 6 0 20 -3 30 -6 15 -5 15 -4 3 5 -25 18 -4 22 44 9 26 -7 45
-17 43 -23 -3 -6 20 -11 60 -12 36 -1 67 -3 69 -6 2 -2 -14 -58 -37 -124 l-42
-120 -41 9 c-23 6 -54 16 -71 23 -16 7 -48 16 -69 20 -22 3 -83 23 -135 43
-53 19 -104 35 -113 34 -10 0 -18 4 -18 9 0 6 -4 8 -10 4 -5 -3 -26 1 -46 10
-20 8 -40 12 -45 9 -5 -3 -9 -2 -9 3 0 15 -48 31 -59 20 -8 -8 -11 -8 -11 0 0
8 -52 25 -80 25 -3 0 -14 5 -25 11 -11 6 -26 12 -33 13 -14 3 -173 48 -226 64
-16 5 -34 6 -40 3 -6 -4 -5 1 2 10 16 19 96 65 120 69 9 2 22 8 27 15 39 48
159 77 217 54z m983 -63 c-11 -35 -18 -38 -57 -27 -59 16 -36 43 40 48 20 1
22 -2 17 -21z m-79 -210 c6 -19 -16 -110 -23 -92 -7 19 -52 4 -50 -17 1 -18 5
-21 34 -23 7 -1 13 -6 14 -11 1 -14 -12 -78 -17 -87 -5 -8 -94 21 -94 30 0 4
16 59 36 123 l36 116 29 -11 c16 -6 32 -18 35 -28z m304 -12 c0 -2 -7 -7 -16
-10 -8 -3 -12 -2 -9 4 6 10 25 14 25 6z m-1542 -22 c21 -6 22 -8 6 -25 -19
-21 -12 -51 11 -43 8 4 22 1 30 -6 8 -6 18 -9 24 -6 5 4 7 -4 4 -16 l-6 -23
23 23 c21 22 21 24 4 43 -9 10 -30 19 -46 19 -16 0 -27 4 -24 9 3 4 25 4 50
-2 25 -6 43 -14 41 -18 -10 -16 8 -41 26 -36 11 3 19 1 19 -5 0 -14 25 -36 41
-36 54 3 81 -3 76 -16 -4 -10 -1 -13 9 -9 8 3 21 0 29 -7 15 -12 31 -16 83
-19 12 0 22 -7 22 -15 0 -8 7 -16 15 -20 8 -3 15 0 15 6 0 7 4 7 13 -1 8 -6
18 -7 22 -3 5 4 5 -1 2 -10 -3 -10 -1 -20 5 -24 6 -4 9 -3 6 2 -3 5 0 15 8 22
13 12 18 8 15 -12 -1 -5 4 -4 12 2 8 7 22 10 31 6 11 -4 16 -1 16 10 0 21 -6
22 145 -29 104 -36 120 -43 80 -39 -27 3 -52 10 -53 15 -2 5 -8 6 -14 3 -6 -4
-13 -2 -17 3 -9 14 -131 52 -131 41 0 -11 78 -47 94 -44 6 2 8 1 4 -1 -20 -11
-5 -25 20 -20 17 3 44 -2 69 -13 41 -18 98 -17 86 3 -4 7 0 8 13 2 10 -4 28
-10 40 -12 20 -5 18 -12 -43 -191 -84 -250 -94 -276 -102 -265 -5 7 -55 32
-81 39 -38 11 -50 19 -51 33 0 10 -2 11 -6 4 -2 -7 -11 -13 -19 -13 -9 0 -12
5 -8 11 4 8 -1 9 -17 4 -20 -7 -22 -5 -12 6 9 12 6 14 -20 13 -39 -1 -72 16
-54 28 7 5 0 6 -14 2 -15 -3 -30 -1 -33 5 -4 6 -2 11 3 11 6 0 11 5 11 12 0 6
-8 4 -19 -6 -18 -16 -20 -16 -40 5 -12 13 -21 18 -21 12 0 -6 -9 -9 -20 -6
-11 3 -17 9 -14 14 3 5 -2 6 -10 3 -9 -3 -16 -1 -16 4 0 6 -8 11 -17 10 -22 0
-86 24 -94 35 -3 5 -9 8 -13 8 -22 -2 -65 13 -59 22 3 6 1 7 -6 3 -6 -4 -19
-2 -28 6 -9 7 -18 12 -20 10 -5 -5 -116 38 -130 50 -9 8 -13 7 -13 -3 0 -11
-2 -11 -8 -2 -9 14 -92 46 -92 35 0 -4 -4 -2 -8 3 -4 6 -41 24 -82 39 -41 15
-97 36 -123 46 -26 10 -49 19 -50 19 -29 9 -67 27 -67 31 0 13 281 196 355
232 32 15 65 13 77 -6 5 -8 13 -6 25 7 16 16 16 17 0 17 -9 0 -17 5 -17 10 0
12 6 12 38 4z m212 -72 c130 -41 205 -68 208 -74 2 -5 7 -6 12 -3 13 8 60 -13
60 -27 0 -11 -2 -11 -8 0 -5 7 -22 14 -40 16 -17 3 -45 11 -64 19 -39 16 -99
36 -127 42 -11 2 -39 13 -63 24 -44 22 -40 22 22 3z m326 -119 c-7 -7 -26 7
-26 19 0 6 6 6 15 -2 9 -7 13 -15 11 -17z m-1016 -47 c0 -3 -4 -8 -10 -11 -5
-3 -10 -1 -10 4 0 6 5 11 10 11 6 0 10 -2 10 -4z m2025 -36 c-3 -5 -12 -10
-18 -10 -7 0 -6 4 3 10 19 12 23 12 15 0z m-2038 -72 c-3 -8 -6 -5 -6 6 -1 11
2 17 5 13 3 -3 4 -12 1 -19z m1564 -70 c13 -18 15 -28 8 -30 -9 -3 -7 -12 5
-30 16 -25 13 -63 -5 -52 -9 5 -13 -9 -10 -35 2 -8 -2 -10 -11 -5 -10 6 -10 4
1 -9 10 -13 10 -17 1 -17 -9 0 -9 -4 -2 -12 7 -9 3 -47 -13 -121 -12 -59 -24
-109 -27 -112 -3 -3 -26 3 -52 14 -25 11 -46 17 -46 14 0 -3 -3 -4 -6 -1 -5 6
26 117 98 353 17 55 33 93 36 85 3 -8 13 -27 23 -42z m-1381 -24 c0 -8 -19
-13 -24 -6 -3 5 1 9 9 9 8 0 15 -2 15 -3z m1655 -14 c3 -5 1 -10 -4 -10 -6 0
-11 5 -11 10 0 6 2 10 4 10 3 0 8 -4 11 -10z m-195 -148 c0 -4 -9 -15 -20 -25
-22 -19 -25 -15 -10 14 11 19 30 26 30 11z m-1265 -12 c3 -5 1 -10 -4 -10 -6
0 -11 5 -11 10 0 6 2 10 4 10 3 0 8 -4 11 -10z m1425 -100 c0 -5 -5 -10 -11
-10 -5 0 -7 5 -4 10 3 6 8 10 11 10 2 0 4 -4 4 -10z m-1090 -20 c0 -4 -10 -15
-22 -26 -17 -14 -20 -15 -9 -2 7 9 10 21 7 26 -3 5 1 9 9 9 8 0 15 -3 15 -7z
m1210 -9 c0 -11 -31 -24 -39 -16 -3 3 1 10 9 15 19 12 30 12 30 1z m-1175 -11
c3 -6 -1 -7 -9 -4 -9 3 -16 2 -16 -3 0 -14 47 -63 60 -63 5 0 10 -5 10 -11 0
-5 -5 -7 -12 -3 -8 5 -9 2 -5 -9 3 -10 3 -17 -2 -17 -16 0 -21 13 -10 27 9 10
8 13 -4 13 -8 0 -18 -6 -21 -12 -3 -7 -3 -3 0 10 6 26 -4 29 -22 5 -7 -10 -14
-13 -14 -6 0 6 6 18 14 26 10 10 12 17 4 25 -11 11 -3 32 12 32 5 0 12 -4 15
-10z m-115 -20 c0 -5 -5 -10 -11 -10 -5 0 -7 5 -4 10 3 6 8 10 11 10 2 0 4 -4
4 -10z m30 -4 c0 -3 -4 -8 -10 -11 -5 -3 -10 -1 -10 4 0 6 5 11 10 11 6 0 10
-2 10 -4z m32 -24 c-7 -2 -12 -12 -12 -23 0 -25 -22 -24 -38 2 -9 13 -9 18 -2
14 6 -4 21 3 33 16 15 16 22 19 25 9 3 -8 0 -16 -6 -18z m73 18 c3 -5 1 -10
-4 -10 -6 0 -11 5 -11 10 0 6 2 10 4 10 3 0 8 -4 11 -10z m39 -26 c3 -8 2 -12
-4 -9 -6 3 -10 10 -10 16 0 14 7 11 14 -7z m49 -16 c-15 -19 12 -76 42 -90 13
-6 22 -15 19 -19 -3 -5 -18 1 -34 12 -15 12 -33 19 -38 15 -6 -3 -13 -2 -17 3
-3 5 3 14 12 20 17 9 16 11 -5 26 -18 13 -21 20 -11 31 15 18 46 20 32 2z m55
-33 c-3 -3 -9 2 -12 12 -6 14 -5 15 5 6 7 -7 10 -15 7 -18z m-183 5 c3 -5 1
-10 -4 -10 -6 0 -11 5 -11 10 0 6 2 10 4 10 3 0 8 -4 11 -10z m105 -20 c0 -12
-28 -25 -36 -17 -9 9 6 27 22 27 8 0 14 -5 14 -10z m97 -15 c-4 -8 -12 -15
-19 -14 -10 0 -10 2 0 6 6 2 12 12 12 21 0 8 3 13 6 9 4 -3 4 -13 1 -22z m78
-25 c-3 -5 -19 -8 -34 -7 -21 1 -26 5 -20 14 6 6 6 13 2 15 -10 6 12 0 32 -8
11 -5 14 -1 9 12 -5 18 -5 18 6 1 6 -9 8 -21 5 -27z m59 31 c3 -5 -6 -8 -20
-8 -19 0 -22 2 -13 8 18 11 26 11 33 0z m401 -50 c6 -20 5 -22 -7 -11 -7 7
-14 21 -14 31 0 23 11 12 21 -20z m240 -51 c3 -6 -4 -10 -17 -10 -18 0 -20 2
-8 10 19 12 18 12 25 0z m-58 -46 c-6 -6 -47 9 -47 17 0 5 11 3 25 -3 14 -6
24 -13 22 -14z m-73 -50 c3 -8 2 -12 -4 -9 -6 3 -10 10 -10 16 0 14 7 11 14
-7z m-114 -63 c0 -12 -29 -41 -41 -41 -5 0 1 11 13 24 26 28 28 29 28 17z"/>
<path d="M1420 2050 c0 -5 7 -10 15 -10 8 0 15 5 15 10 0 6 -7 10 -15 10 -8 0
-15 -4 -15 -10z"/>
<path d="M1290 2035 c-7 -8 -9 -15 -6 -15 4 0 14 7 22 15 9 8 11 15 6 15 -5 0
-15 -7 -22 -15z"/>
<path d="M1340 2030 c0 -5 5 -10 10 -10 6 0 10 5 10 10 0 6 -4 10 -10 10 -5 0
-10 -4 -10 -10z"/>
<path d="M1475 2010 c-3 -5 -2 -10 4 -10 5 0 13 5 16 10 3 6 2 10 -4 10 -5 0
-13 -4 -16 -10z"/>
<path d="M1655 1980 c3 -5 11 -10 16 -10 6 0 7 5 4 10 -3 6 -11 10 -16 10 -6
0 -7 -4 -4 -10z"/>
<path d="M1725 1970 c3 -5 8 -10 11 -10 2 0 4 5 4 10 0 6 -5 10 -11 10 -5 0
-7 -4 -4 -10z"/>
<path d="M1855 1930 c-4 -6 6 -10 22 -10 22 0 25 2 13 10 -19 12 -27 12 -35 0z"/>
<path d="M2030 1670 c0 -5 5 -10 11 -10 5 0 7 5 4 10 -3 6 -8 10 -11 10 -2 0
-4 -4 -4 -10z"/>
<path d="M1030 1717 c0 -5 9 -6 20 -2 16 5 19 3 14 -12 -5 -14 -4 -15 4 -3 6
8 9 17 6 21 -6 10 -44 7 -44 -4z"/>
<path d="M1091 1706 c-9 -10 -9 -16 -1 -21 16 -10 31 7 21 23 -6 10 -10 10
-20 -2z"/>
<path d="M1148 1673 c-24 -6 -23 -23 2 -23 11 0 20 7 20 15 0 8 -1 14 -2 14
-2 -1 -11 -3 -20 -6z"/>
<path d="M1080 1651 c0 -10 30 -24 37 -17 3 2 -5 9 -16 16 -12 6 -21 7 -21 1z"/>
<path d="M995 1540 c-3 -5 -1 -10 4 -10 6 0 11 5 11 10 0 6 -2 10 -4 10 -3 0
-8 -4 -11 -10z"/>
<path d="M785 1460 c3 -5 13 -10 21 -10 8 0 12 5 9 10 -3 6 -13 10 -21 10 -8
0 -12 -4 -9 -10z"/>
<path d="M1691 1457 c2 -1 12 -9 22 -16 14 -12 17 -11 17 3 0 10 -8 16 -22 16
-12 0 -19 -1 -17 -3z"/>
<path d="M1975 1440 c3 -5 11 -10 16 -10 6 0 7 5 4 10 -3 6 -11 10 -16 10 -6
0 -7 -4 -4 -10z"/>
<path d="M2010 1440 c0 -5 5 -10 11 -10 5 0 7 5 4 10 -3 6 -8 10 -11 10 -2 0
-4 -4 -4 -10z"/>
<path d="M1765 1410 c-3 -6 1 -7 9 -4 18 7 21 14 7 14 -6 0 -13 -4 -16 -10z"/>
<path d="M965 1400 c3 -5 8 -10 11 -10 2 0 4 5 4 10 0 6 -5 10 -11 10 -5 0 -7
-4 -4 -10z"/>
<path d="M1080 1401 c0 -5 7 -12 16 -15 14 -5 15 -4 4 9 -14 17 -20 19 -20 6z"/>
<path d="M1162 1390 c-6 -11 -12 -22 -12 -25 0 -11 20 6 30 26 14 25 -2 25
-18 -1z"/>
<path d="M1203 1404 c4 -4 1 -14 -6 -23 -11 -14 -10 -15 8 -1 11 8 21 15 23
16 2 1 -5 5 -15 8 -9 4 -14 4 -10 0z"/>
<path d="M1810 1400 c0 -5 5 -10 10 -10 6 0 10 5 10 10 0 6 -4 10 -10 10 -5 0
-10 -4 -10 -10z"/>
<path d="M1055 1390 c-3 -5 -1 -10 4 -10 6 0 11 5 11 10 0 6 -2 10 -4 10 -3 0
-8 -4 -11 -10z"/>
<path d="M1250 1390 c0 -5 5 -10 11 -10 5 0 7 5 4 10 -3 6 -8 10 -11 10 -2 0
-4 -4 -4 -10z"/>
<path d="M1955 1390 c4 -6 11 -8 16 -5 14 9 11 15 -7 15 -8 0 -12 -5 -9 -10z"/>
<path d="M1117 1364 c-8 -8 1 -24 12 -24 4 0 8 7 8 15 0 16 -9 20 -20 9z"/>
<path d="M1225 1360 c-3 -5 -2 -10 4 -10 5 0 13 5 16 10 3 6 2 10 -4 10 -5 0
-13 -4 -16 -10z"/>
<path d="M1160 1345 c-7 -9 -8 -15 -2 -15 5 0 12 7 16 15 3 8 4 15 2 15 -2 0
-9 -7 -16 -15z"/>
<path d="M1250 1345 c-7 -9 -8 -15 -2 -15 5 0 12 7 16 15 3 8 4 15 2 15 -2 0
-9 -7 -16 -15z"/>
<path d="M1210 1330 c0 -5 5 -10 11 -10 5 0 7 5 4 10 -3 6 -8 10 -11 10 -2 0
-4 -4 -4 -10z"/>
<path d="M1380 1335 c0 -5 5 -17 10 -25 5 -8 10 -10 10 -5 0 6 -5 17 -10 25
-5 8 -10 11 -10 5z"/>
<path d="M1415 1310 c3 -5 11 -10 16 -10 6 0 7 5 4 10 -3 6 -11 10 -16 10 -6
0 -7 -4 -4 -10z"/>
<path d="M1250 1290 c0 -5 7 -7 15 -4 8 4 15 8 15 10 0 2 -7 4 -15 4 -8 0 -15
-4 -15 -10z"/>
<path d="M1655 1270 c-3 -5 -1 -10 4 -10 6 0 11 5 11 10 0 6 -2 10 -4 10 -3 0
-8 -4 -11 -10z"/>
<path d="M1475 1219 c-9 -14 -2 -20 14 -10 8 6 9 11 3 15 -6 3 -14 1 -17 -5z"/>
<path d="M1545 1190 c3 -5 8 -10 11 -10 2 0 4 5 4 10 0 6 -5 10 -11 10 -5 0
-7 -4 -4 -10z"/>
<path d="M1790 1140 c0 -5 5 -10 11 -10 5 0 7 5 4 10 -3 6 -8 10 -11 10 -2 0
-4 -4 -4 -10z"/>
<path d="M2190 1286 c0 -2 7 -9 15 -16 13 -11 14 -10 9 4 -5 14 -24 23 -24 12z"/>
<path d="M2170 1261 c0 -6 4 -13 10 -16 6 -3 7 1 4 9 -7 18 -14 21 -14 7z"/>
<path d="M1770 2741 c0 -6 5 -13 10 -16 6 -3 10 1 10 9 0 9 -4 16 -10 16 -5 0
-10 -4 -10 -9z"/>
<path d="M1998 2613 c7 -3 16 -2 19 1 4 3 -2 6 -13 5 -11 0 -14 -3 -6 -6z"/>
<path d="M2695 1960 c3 -5 8 -10 11 -10 2 0 4 5 4 10 0 6 -5 10 -11 10 -5 0
-7 -4 -4 -10z"/>
<path d="M2660 1911 c0 -5 7 -15 17 -22 15 -13 15 -12 4 9 -12 23 -21 28 -21
13z"/>
<path d="M640 1218 c0 -4 4 -8 9 -8 6 0 12 4 15 8 3 5 -1 9 -9 9 -8 0 -15 -4
-15 -9z"/>
<path d="M817 1213 c-14 -13 -6 -23 16 -19 12 3 24 5 27 5 6 2 -23 21 -31 21
-3 0 -9 -3 -12 -7z"/>
<path d="M710 1198 c0 -14 19 -18 44 -8 15 5 26 6 26 1 0 -5 -6 -11 -12 -14
-7 -3 -4 -5 7 -5 26 -1 47 -6 62 -15 9 -6 11 -3 7 7 -3 8 -15 16 -27 18 -12 2
-21 8 -20 14 1 5 -18 10 -43 9 -24 0 -44 -3 -44 -7z"/>
<path d="M860 1170 c0 -5 5 -10 10 -10 6 0 10 5 10 10 0 6 -4 10 -10 10 -5 0
-10 -4 -10 -10z"/>
<path d="M806 1146 c10 -8 21 -12 24 -10 5 6 -21 24 -34 24 -6 0 -1 -6 10 -14z"/>
<path d="M2639 1139 c13 -11 27 -17 30 -13 7 7 -28 34 -43 34 -6 -1 0 -10 13
-21z"/>
<path d="M886 1142 c-2 -4 -1 -14 4 -22 7 -12 12 -12 22 -2 9 9 8 12 -6 12 -9
0 -14 5 -11 10 3 6 4 10 1 10 -3 0 -7 -4 -10 -8z"/>
<path d="M835 1120 c-9 -14 14 -41 29 -34 6 3 3 -1 -7 -9 -13 -11 -15 -16 -5
-19 7 -3 18 2 24 11 13 17 7 44 -7 35 -5 -3 -14 -2 -20 2 -8 4 -7 9 2 15 10 6
10 9 2 9 -6 0 -15 -5 -18 -10z"/>
<path d="M2582 1092 c-9 -13 -14 -14 -18 -4 -7 15 -24 16 -24 1 0 -12 29 -38
42 -39 4 0 5 6 2 14 -8 21 14 29 32 12 17 -18 24 -20 24 -8 0 4 -11 14 -23 24
-22 15 -24 15 -35 0z"/>
<path d="M785 1080 c-3 -5 -1 -10 4 -10 6 0 11 5 11 10 0 6 -2 10 -4 10 -3 0
-8 -4 -11 -10z"/>
<path d="M1065 1070 c-4 -6 -14 -8 -23 -6 -10 3 -24 1 -32 -4 -12 -7 -12 -12
-2 -22 10 -10 17 -10 32 -1 22 15 33 -2 18 -29 -9 -19 -1 -23 20 -10 9 6 10
16 4 33 -5 13 -7 30 -5 37 6 15 -3 16 -12 2z"/>
<path d="M795 1040 c3 -5 11 -10 16 -10 6 0 7 5 4 10 -3 6 -11 10 -16 10 -6 0
-7 -4 -4 -10z"/>
<path d="M870 1030 c0 -5 7 -7 15 -4 8 4 15 8 15 10 0 2 -7 4 -15 4 -8 0 -15
-4 -15 -10z"/>
<path d="M900 1020 c-11 -8 -8 -9 12 -4 19 4 29 1 37 -13 6 -10 11 -13 11 -7
0 13 -21 34 -34 34 -6 0 -18 -5 -26 -10z"/>
<path d="M837 1013 c-4 -7 -3 -14 2 -18 6 -3 8 -12 4 -20 -3 -8 0 -15 6 -15
12 0 13 16 2 44 -5 13 -10 16 -14 9z"/>
<path d="M1030 1009 c0 -5 5 -7 10 -4 6 3 10 8 10 11 0 2 -4 4 -10 4 -5 0 -10
-5 -10 -11z"/>
<path d="M1190 1005 c-7 -8 -17 -12 -22 -9 -7 5 -7 0 0 -12 7 -12 7 -25 1 -36
-21 -39 1 -15 24 27 25 43 23 61 -3 30z"/>
<path d="M875 990 c-6 -9 1 -14 18 -11 4 0 7 -4 7 -10 0 -6 6 -9 13 -6 6 2 22
0 35 -4 15 -6 21 -5 17 1 -3 6 -13 10 -21 10 -8 0 -14 5 -14 11 0 5 -5 7 -10
4 -6 -4 -17 -2 -25 5 -9 7 -15 8 -20 0z"/>
<path d="M1214 991 c4 -5 0 -11 -6 -14 -7 -2 -10 -8 -6 -12 4 -4 11 -4 17 0
14 8 14 35 0 35 -5 0 -8 -4 -5 -9z"/>
<path d="M804 968 c-4 -6 -2 -14 4 -16 6 -2 8 -11 5 -20 -5 -14 -3 -15 7 -5
10 9 10 15 2 26 -7 8 -9 17 -5 20 3 4 4 7 0 7 -3 0 -9 -5 -13 -12z"/>
<path d="M1087 953 c-10 -9 -9 -23 2 -23 5 0 11 7 15 15 5 15 -5 20 -17 8z"/>
<path d="M921 941 c-12 -8 -11 -13 10 -30 33 -28 47 -26 20 3 -17 18 -19 25
-9 29 7 3 9 6 3 6 -5 0 -17 -3 -24 -8z"/>
<path d="M1020 935 c0 -8 4 -15 10 -15 5 0 7 7 4 15 -4 8 -8 15 -10 15 -2 0
-4 -7 -4 -15z"/>
<path d="M1130 929 c0 -5 5 -7 10 -4 6 3 10 8 10 11 0 2 -4 4 -10 4 -5 0 -10
-5 -10 -11z"/>
<path d="M845 920 c-3 -6 1 -7 9 -4 18 7 21 14 7 14 -6 0 -13 -4 -16 -10z"/>
<path d="M1052 918 c5 -15 28 -23 28 -10 0 5 -7 13 -16 16 -10 4 -14 1 -12 -6z"/>
<path d="M894 901 c13 -15 14 -20 4 -24 -7 -3 -8 -6 -2 -6 6 -1 18 7 25 16 8
9 9 14 3 10 -7 -4 -14 0 -18 8 -3 8 -11 15 -17 15 -8 0 -5 -7 5 -19z"/>
<path d="M1074 865 c-9 -14 -14 -28 -11 -31 3 -3 12 9 20 25 19 38 14 40 -9 6z"/>
<path d="M1170 879 c0 -5 5 -7 10 -4 6 3 10 8 10 11 0 2 -4 4 -10 4 -5 0 -10
-5 -10 -11z"/>
<path d="M1145 871 c-3 -5 -1 -12 5 -16 5 -3 10 1 10 9 0 18 -6 21 -15 7z"/>
<path d="M934 863 c3 -6 -1 -19 -10 -27 -8 -9 -11 -16 -6 -16 5 0 15 7 22 15
11 13 11 18 0 28 -9 8 -11 9 -6 0z"/>
<path d="M965 860 c-3 -5 0 -10 9 -10 8 0 17 -6 19 -12 4 -8 6 -9 6 -2 1 18
-26 37 -34 24z"/>
<path d="M1096 854 c-5 -14 -4 -15 9 -4 17 14 19 20 6 20 -5 0 -12 -7 -15 -16z"/>
<path d="M1366 835 c-3 -8 -1 -15 4 -15 6 0 10 7 10 15 0 8 -2 15 -4 15 -2 0
-6 -7 -10 -15z"/>
<path d="M1137 833 c-4 -3 -7 -11 -7 -17 0 -6 5 -5 12 2 6 6 9 14 7 17 -3 3
-9 2 -12 -2z"/>
<path d="M1260 831 c0 -10 19 -25 25 -20 1 2 -3 10 -11 17 -8 7 -14 8 -14 3z"/>
<path d="M1405 809 c11 -13 21 -26 22 -28 2 -2 3 3 3 12 0 9 -10 22 -22 28
l-23 12 20 -24z"/>
<path d="M1064 805 c-4 -8 -11 -12 -17 -8 -6 3 -7 1 -3 -5 10 -17 26 -15 26 2
0 8 6 17 13 19 9 4 9 6 -1 6 -7 1 -15 -6 -18 -14z"/>
<path d="M1113 792 c0 -12 5 -22 9 -22 11 0 10 12 -2 30 -7 12 -9 10 -7 -8z"/>
<path d="M1164 788 c0 -22 12 -24 20 -2 8 21 8 21 -7 21 -7 0 -13 -9 -13 -19z"/>
<path d="M1080 770 c0 -5 5 -10 11 -10 5 0 7 5 4 10 -3 6 -8 10 -11 10 -2 0
-4 -4 -4 -10z"/>
<path d="M1390 768 c0 -9 5 -20 10 -23 13 -8 13 5 0 25 -8 13 -10 13 -10 -2z"/>
<path d="M1517 773 c-13 -13 -7 -20 18 -20 14 0 25 4 25 9 0 5 -4 6 -10 3 -5
-3 -10 -1 -10 4 0 12 -13 14 -23 4z"/>
<path d="M1080 740 c0 -5 5 -10 10 -10 6 0 10 5 10 10 0 6 -4 10 -10 10 -5 0
-10 -4 -10 -10z"/>
<path d="M1230 740 c0 -5 5 -10 11 -10 5 0 7 5 4 10 -3 6 -8 10 -11 10 -2 0
-4 -4 -4 -10z"/>
<path d="M1710 719 c0 -5 5 -7 10 -4 6 3 10 8 10 11 0 2 -4 4 -10 4 -5 0 -10
-5 -10 -11z"/>
<path d="M1507 713 c-4 -3 -7 -11 -7 -17 0 -6 5 -5 12 2 6 6 9 14 7 17 -3 3
-9 2 -12 -2z"/>
<path d="M1620 670 c-9 -6 -10 -10 -3 -10 6 0 15 5 18 10 8 12 4 12 -15 0z"/>
<path d="M1305 650 c3 -5 8 -10 11 -10 2 0 4 5 4 10 0 6 -5 10 -11 10 -5 0 -7
-4 -4 -10z"/>
<path d="M2150 611 c0 -6 4 -13 10 -16 6 -3 7 1 4 9 -7 18 -14 21 -14 7z"/>
<path d="M2005 550 c-3 -5 -1 -10 4 -10 6 0 11 5 11 10 0 6 -2 10 -4 10 -3 0
-8 -4 -11 -10z"/>
<path d="M2065 550 c-3 -5 -1 -10 4 -10 6 0 11 5 11 10 0 6 -2 10 -4 10 -3 0
-8 -4 -11 -10z"/>
</g>
</svg>
